<?xml version="1.0" standalone="no"?><!DOCTYPE svg PUBLIC "-//W3C//DTD SVG 1.1//EN" "http://www.w3.org/Graphics/SVG/1.1/DTD/svg11.dtd" [<!ENTITY nbsp "&#160;">]><svg id="svgContent" version="1.1" width="1000" height="999" style="position: relative; width: 1000px; height: 999px; margin:auto; user-select: none; cursor: default;" xmlns="http://www.w3.org/2000/svg" xmlns:xlink="http://www.w3.org/1999/xlink" viewBox="0 0 1000 999"><defs><style type="text/css"><![CDATA[

]]></style></defs><g id="svgPath"><path d="M 462 1.107 C 322.754 12.098, 196.153 79.063, 109.386 187.620 C -5.359 331.180, -31.874 527.029, 40.489 696.500 C 65.088 754.109, 100.679 806.592, 145.990 852.076 C 231.757 938.169, 341.596 988.567, 463.950 997.967 C 481.214 999.293, 518.758 999.294, 536.050 997.969 C 622.927 991.312, 703.059 964.196, 774.426 917.303 C 822.452 885.747, 866.526 844.167, 901.136 797.763 C 949.558 732.841, 981.835 655.672, 993.908 575.961 C 996.479 558.989, 999 532.965, 999 523.398 C 999 519.394, 999.450 515.840, 1000 515.500 C 1000.601 515.128, 1001 508.303, 1001 498.382 C 1001 489.307, 1000.619 482.117, 1000.154 482.405 C 999.688 482.693, 999.012 476.427, 998.651 468.480 C 996.471 420.515, 983.827 363.324, 964.827 315.500 C 918.828 199.713, 832.097 105.811, 720.500 50.971 C 662.172 22.308, 602.349 6.111, 536.050 1.031 C 520.565 -0.156, 477.438 -0.111, 462 1.107 M 480 15.600 C 398.889 20.147, 328.043 40.518, 261 78.570 C 224.346 99.374, 191.336 124.456, 160.660 154.814 C 134.682 180.523, 117.060 201.729, 97.986 230.235 C 54.245 295.605, 28.552 365.355, 18.846 445.075 C 16.905 461.022, 16.603 468.341, 16.603 499.500 C 16.603 538.412, 17.964 555.286, 23.575 585.925 C 39.419 672.438, 78.393 752.818, 136.588 819 C 148.165 832.166, 172.510 856.310, 185 867.012 C 232.129 907.394, 287.648 938.848, 346.660 958.598 C 433.651 987.712, 525.840 991.464, 615.500 969.540 C 726.722 942.343, 823.869 876.787, 892.670 782.500 C 938.458 719.750, 970.154 640.008, 979.917 563 C 986.253 513.016, 985.017 459.994, 976.421 413.057 C 962.506 337.073, 929.201 262.594, 882.489 203 C 868.642 185.335, 861.011 176.737, 843.150 158.674 C 761.836 76.444, 657.989 27.810, 540.714 17.035 C 528.801 15.940, 490.202 15.028, 480 15.600 M 462.500 21.089 C 381.655 27.630, 304.869 53.793, 237.500 97.750 C 137.194 163.199, 63.858 265.776, 34.992 381 C 2.946 508.921, 23.741 642.979, 92.774 753.500 C 134.467 820.249, 193.054 876.698, 261.468 916.039 C 275.805 924.283, 307.384 939.533, 322.358 945.444 C 397.672 975.171, 480.063 985.515, 561 975.405 C 599.527 970.593, 641.201 959.901, 677.500 945.518 C 692.598 939.535, 724.070 924.332, 738.500 916.051 C 803.257 878.886, 860.220 825.247, 901.337 762.716 C 986.564 633.102, 1003.453 467.976, 946.311 323 C 906.735 222.591, 832.786 137.161, 738.532 82.961 C 724.205 74.722, 692.661 59.488, 677.500 53.486 C 632.780 35.780, 585.433 24.946, 535.605 21.017 C 520.805 19.850, 477.284 19.893, 462.500 21.089 M 527.728 293.163 C 525.880 296.098, 520.353 305.137, 515.444 313.250 C 510.536 321.363, 506.049 328, 505.474 328 C 504.899 328, 483.969 323.765, 458.964 318.589 C 433.959 313.412, 413.420 309.255, 413.321 309.350 C 413.223 309.446, 421.772 354.268, 432.319 408.956 C 442.865 463.643, 451.628 507.694, 451.791 506.847 C 451.954 506, 449.359 477.675, 446.024 443.903 C 442.689 410.131, 439.857 381.157, 439.730 379.516 L 439.500 376.531 472.500 374.334 C 490.650 373.126, 505.630 372.107, 505.789 372.069 C 505.948 372.031, 506.024 366.712, 505.956 360.250 L 505.835 348.500 517.593 320.759 C 524.060 305.502, 529.452 293.127, 529.575 293.259 C 529.698 293.392, 525.643 312.399, 520.563 335.497 L 511.328 377.494 507.414 378.139 C 505.261 378.494, 495.280 379.113, 485.233 379.515 C 475.187 379.916, 466.805 380.527, 466.608 380.872 C 466.411 381.218, 467.065 391.833, 468.062 404.462 L 469.875 427.423 461.411 467.462 C 456.756 489.483, 452.749 508.063, 452.505 508.750 C 451.065 512.820, 456.237 506.803, 477.925 479.178 L 502.123 448.356 514.811 443.799 L 527.500 439.242 528.246 427.450 C 528.656 420.964, 528.804 415.470, 528.575 415.241 C 528.345 415.012, 520.022 416.757, 510.079 419.119 L 492 423.413 492 436.803 L 492 450.194 473.250 478.974 C 462.938 494.803, 454.361 507.634, 454.192 507.486 C 453.914 507.243, 479.855 420.748, 480.309 420.403 C 480.414 420.324, 489.050 418.103, 499.500 415.468 C 509.950 412.833, 518.827 410.400, 519.227 410.061 C 519.627 409.723, 522.534 382.590, 525.688 349.767 C 528.841 316.943, 531.531 290.198, 531.665 290.332 C 531.800 290.466, 536.021 305.634, 541.046 324.038 L 550.183 357.500 549.249 372 C 548.735 379.975, 548.476 386.695, 548.674 386.933 C 549.119 387.470, 572.880 384.454, 573.559 383.774 C 574.213 383.121, 576.960 366.247, 576.983 362.750 C 576.999 360.144, 576.752 359.996, 572.250 359.926 C 569.638 359.885, 565.534 359.548, 563.131 359.176 L 558.763 358.500 546.377 326.088 C 539.565 308.261, 534.135 293.531, 534.312 293.355 C 534.488 293.179, 541.303 303.398, 549.456 316.066 L 564.279 339.097 563.739 346.977 L 563.199 354.858 566.849 355.398 C 575.590 356.691, 584.002 357.166, 584.019 356.366 C 584.030 355.890, 584.678 351, 585.460 345.500 C 586.242 340, 586.571 335.241, 586.191 334.924 C 585.811 334.607, 580.837 333.076, 575.138 331.521 L 564.775 328.694 549.727 309.887 C 541.450 299.543, 534.232 291.357, 533.685 291.695 C 533.138 292.033, 532.981 291.840, 533.334 291.268 C 533.688 290.695, 533.327 289.687, 532.532 289.027 C 531.338 288.035, 530.501 288.756, 527.728 293.163 M 552.594 390.611 C 543.296 391.913, 535.500 393.166, 535.270 393.396 C 534.493 394.174, 533.688 428, 534.447 428 C 535.360 428, 567.353 417.889, 567.853 417.442 C 568.467 416.894, 571.767 389.536, 571.314 388.750 C 571.076 388.337, 570.571 388.055, 570.191 388.122 C 569.811 388.189, 561.892 389.309, 552.594 390.611 M 0.409 499.500 C 0.408 508.850, 0.558 512.810, 0.743 508.299 C 0.928 503.789, 0.929 496.139, 0.745 491.299 C 0.562 486.460, 0.410 490.150, 0.409 499.500 M 200.632 550.516 C 199.607 553.187, 199.906 556.681, 201.250 557.741 C 201.938 558.283, 204.525 559.027, 207 559.393 C 213.854 560.407, 217.912 561.967, 219.004 564.007 C 220.747 567.264, 215.740 687.635, 213.680 692 C 212.195 695.145, 203.526 699.606, 195.795 701.203 C 189.668 702.469, 188.033 704.379, 189.398 708.678 C 189.942 710.393, 191.945 710.500, 223.488 710.500 L 257 710.500 257 706.482 L 257 702.465 250.498 700.759 C 240.359 698.100, 233.954 695.010, 232.915 692.277 C 232.190 690.368, 234.464 624.527, 236.256 595.558 C 236.470 592.108, 239.295 597.903, 258.924 642.058 C 290.648 713.417, 289.486 711, 292.060 711 C 293.259 711, 295.871 709.317, 297.881 707.250 C 300.993 704.048, 304.662 695.684, 322.980 650.038 C 342.440 601.543, 344.501 596.898, 345.156 600.038 C 345.553 601.942, 346.348 618.125, 346.923 636 C 347.498 653.875, 348.234 673.271, 348.559 679.103 C 349.431 694.750, 348.192 697.017, 336.618 700.951 C 331.639 702.644, 331.500 702.796, 331.500 706.571 L 331.500 710.452 365.250 710.476 L 399 710.500 399 706.433 C 399 702.386, 398.972 702.356, 393.578 700.656 C 385.631 698.151, 384.193 696.570, 382.517 688.500 C 380.304 677.850, 375.250 567.942, 376.814 564.508 C 378.087 561.716, 383.330 559, 387.449 559 C 390.317 559, 391.656 555.750, 390.570 551.424 C 389.938 548.905, 389.788 548.864, 383.679 549.518 C 380.245 549.885, 368.788 550.257, 358.219 550.343 C 347.650 550.429, 339.003 550.569, 339.002 550.654 C 339.001 550.738, 337 557.512, 334.555 565.706 C 330.378 579.708, 319.016 610.321, 306.609 641 L 301.150 654.500 299.485 650.500 C 295.110 639.986, 287.702 623.228, 274.897 594.877 C 267.202 577.842, 259.599 560.663, 258 556.702 C 255.302 550.022, 254.889 549.517, 252.296 549.734 C 245.059 550.341, 209.034 550.231, 205.382 549.591 C 202.044 549.005, 201.145 549.181, 200.632 550.516 M 412.526 550.918 C 412.155 552.088, 412.124 554.287, 412.457 555.805 C 413.036 558.440, 413.459 558.619, 421.782 559.745 C 431.884 561.111, 434.454 563.078, 435.489 570.231 C 435.829 572.579, 435.970 600.620, 435.804 632.545 C 435.460 698.255, 436.025 693.927, 427.201 698.398 C 424.581 699.726, 420.314 701.130, 417.719 701.519 L 413 702.227 413 706.364 L 413 710.500 445 710.500 L 477 710.500 477 706.321 L 477 702.142 471.250 700.968 C 468.087 700.323, 463.306 698.861, 460.625 697.720 C 452.348 694.198, 452.630 696.284, 452.264 636 L 451.944 583.500 454.110 586 C 455.301 587.375, 478.100 615.643, 504.776 648.817 C 531.451 681.992, 554.337 709.830, 555.634 710.680 C 557.186 711.697, 559.103 712.016, 561.246 711.614 L 564.500 711.004 564.500 641.252 C 564.500 576.623, 564.629 571.264, 566.256 568.289 C 568.652 563.905, 575.666 559.993, 582.371 559.301 C 588.358 558.683, 589.421 557.354, 588.321 551.857 C 587.754 549.021, 587.734 549.014, 582.126 549.756 C 574.796 550.725, 538.153 550.716, 530.771 549.743 C 525.337 549.026, 525.012 549.106, 524.465 551.283 C 523.226 556.221, 525.239 558.366, 532.987 560.359 C 542.418 562.786, 545.677 565.698, 547.005 572.886 C 548.280 579.791, 548.340 648.289, 547.070 647.833 C 545.472 647.260, 483.732 569.724, 477.332 560.251 C 473.987 555.300, 471.081 550.771, 470.875 550.185 C 470.610 549.433, 468.143 549.427, 462.500 550.164 C 454.637 551.191, 422.580 550.666, 416.289 549.408 C 413.726 548.895, 413.087 549.152, 412.526 550.918 M 612.412 550.368 C 612.108 551.161, 612.003 553.312, 612.180 555.148 C 612.480 558.276, 612.783 558.527, 617 559.131 C 626.414 560.479, 629.939 561.909, 630.630 564.661 C 631.298 567.322, 628.684 645.532, 626.943 675 C 625.976 691.360, 625.943 691.522, 623.095 694.137 C 619.950 697.023, 611.256 700.616, 604.990 701.618 C 601.085 702.242, 601 702.344, 601 706.378 L 601 710.500 634.743 710.466 C 666.394 710.435, 668.507 710.321, 668.831 708.637 C 669.744 703.896, 668.254 702.306, 661.262 700.566 C 657.543 699.640, 652.138 697.809, 649.250 696.497 L 644 694.111 644.045 683.305 C 644.101 669.898, 647.518 594.149, 648.093 593.574 C 648.324 593.343, 660.210 619.487, 674.506 651.672 C 688.803 683.858, 701.103 710.437, 701.841 710.737 C 703.970 711.605, 709.658 708.387, 711.497 705.275 C 712.421 703.709, 722.749 678.666, 734.446 649.622 C 748.429 614.904, 755.943 597.408, 756.380 598.548 C 757.217 600.730, 758.913 644.649, 759.247 672.825 L 759.500 694.150 756.756 696.522 C 755.246 697.827, 751.521 699.679, 748.477 700.639 C 742.748 702.445, 741.108 704.614, 742.398 708.678 C 742.943 710.396, 744.909 710.495, 776.738 710.411 C 807.982 710.329, 810.525 710.192, 810.839 708.582 C 811.309 706.164, 810.158 702, 809.018 702 C 808.500 702, 805.540 701.051, 802.441 699.892 C 795.717 697.376, 794.653 695.457, 793.040 682.933 C 791.080 667.710, 786.874 568.661, 788.045 565.300 C 789.235 561.887, 792.207 559.977, 797.719 559.081 C 801.440 558.476, 801.500 558.395, 801.500 553.983 L 801.500 549.500 797.500 549.632 C 795.300 549.705, 783.825 549.989, 772 550.264 L 750.500 550.764 745.411 567.132 C 742.613 576.134, 738.195 589.125, 735.594 596 C 727.168 618.272, 712.808 654.142, 712.458 653.792 C 712.271 653.604, 709.225 646.712, 705.690 638.475 C 702.155 630.239, 692.943 609.550, 685.220 592.500 C 677.497 575.450, 670.097 558.800, 668.776 555.500 L 666.375 549.500 656.937 550 C 645.664 550.597, 624.388 550.333, 617.733 549.514 C 614.103 549.067, 612.833 549.271, 612.412 550.368" stroke="none" fill="#050505" fill-rule="evenodd" style="--darkreader-inline-fill: #040404; --darkreader-inline-stroke: none;" data-darkreader-inline-fill="" data-darkreader-inline-stroke=""></path><path d="M 517.387 310.958 C 508.240 326.066, 506.196 328.842, 504.507 328.447 C 492.527 325.648, 414.642 310.024, 414.312 310.354 C 414.070 310.596, 422.114 353.551, 432.186 405.809 C 442.259 458.067, 450.642 500.684, 450.815 500.513 C 450.989 500.342, 448.352 472.456, 444.956 438.544 C 441.560 404.632, 438.952 376.715, 439.160 376.506 C 439.508 376.159, 498.426 372, 503.003 372 C 504.882 372, 505 371.327, 505 360.631 L 505 349.261 514.090 327.881 C 519.090 316.121, 524.470 303.462, 526.046 299.750 C 527.622 296.038, 528.764 293, 528.585 293 C 528.406 293, 523.367 301.081, 517.387 310.958 M 541.671 303.250 C 545.322 308.887, 551.941 319.125, 556.380 326 L 564.450 338.500 564.150 346.669 L 563.850 354.838 573.175 355.568 C 578.304 355.969, 582.725 356.247, 583 356.186 C 583.562 356.061, 585.809 341.953, 585.925 337.821 C 585.992 335.412, 585.445 334.983, 580.500 333.571 C 562.828 328.523, 566.071 330.928, 550.044 310.987 C 542.094 301.094, 535.463 293, 535.310 293 C 535.157 293, 538.019 297.613, 541.671 303.250 M 520.557 337.663 C 515.659 359.956, 511.167 378.343, 510.576 378.522 C 509.984 378.701, 500.086 379.334, 488.579 379.928 C 477.073 380.522, 467.469 381.197, 467.238 381.428 C 467.007 381.660, 467.584 392.345, 468.521 405.174 L 470.224 428.500 462.646 463.951 C 458.478 483.448, 455.192 499.525, 455.343 499.677 C 455.495 499.828, 460.931 482.300, 467.425 460.726 C 473.918 439.152, 479.741 420.993, 480.365 420.373 C 480.989 419.753, 489.553 417.278, 499.396 414.873 C 509.239 412.468, 517.831 410.050, 518.491 409.500 C 519.606 408.570, 530.757 298.424, 529.830 297.497 C 529.628 297.295, 525.455 315.369, 520.557 337.663 M 535.079 299.367 C 535.036 299.844, 538.580 313.344, 542.955 329.367 L 550.910 358.500 549.843 372.305 C 549.257 379.898, 548.943 386.276, 549.146 386.480 C 549.350 386.683, 554.967 386.137, 561.629 385.266 L 573.741 383.682 574.883 375.591 C 575.511 371.141, 576.300 365.830, 576.637 363.789 L 577.249 360.078 567.967 359.789 L 558.685 359.500 547.377 330 C 534.825 297.254, 535.189 298.160, 535.079 299.367 M 550.890 391.321 L 535.281 393.384 534.737 410.442 C 534.438 419.824, 534.263 427.559, 534.347 427.632 C 534.431 427.704, 541.978 425.347, 551.118 422.393 L 567.736 417.021 568.895 407.761 C 569.533 402.667, 570.325 396.363, 570.656 393.750 C 571.370 388.114, 573.327 388.355, 550.890 391.321 M 508 419.969 L 492.500 423.701 492.222 437.347 L 491.944 450.994 482.313 465.747 C 453.859 509.334, 453.860 509.348, 482.684 472.344 L 501.500 448.187 513 444.058 C 519.325 441.787, 525.114 439.549, 525.865 439.085 C 526.828 438.488, 527.384 434.973, 527.756 427.120 L 528.283 416 525.892 416.118 C 524.576 416.183, 516.525 417.916, 508 419.969 M 201 554.077 L 201 557.654 207.652 558.880 C 211.310 559.554, 215.585 560.768, 217.152 561.578 C 219.935 563.018, 220 563.241, 220 571.333 C 220 583.370, 217.178 656.773, 215.996 675.500 L 214.986 691.500 211.656 694.614 C 208.663 697.413, 200.856 700.641, 192.750 702.431 C 190.308 702.970, 190 703.487, 190 707.051 L 190 711.063 200.750 710.282 C 214.401 709.289, 231.351 709.285, 245.809 710.271 L 257.117 711.043 256.809 706.845 L 256.500 702.648 250.602 701.313 C 241.014 699.144, 233.076 695.151, 232.314 692.114 C 231.665 689.531, 234.611 610.796, 235.850 597.571 L 236.500 590.641 263 650.291 C 288.965 708.736, 289.557 709.941, 292.327 709.970 C 297.986 710.030, 299.724 706.739, 317.395 662.500 C 343.238 597.803, 344.186 595.580, 345.171 597.341 C 346.064 598.936, 347.364 626.178, 348.578 668.715 L 349.269 692.931 345.885 696.311 C 343.655 698.538, 340.708 700.150, 337.250 701.035 L 332 702.378 332 706.707 L 332 711.036 343.250 710.268 C 357.653 709.285, 376.809 709.288, 389.309 710.274 L 399.117 711.049 398.809 706.879 C 398.519 702.967, 398.253 702.636, 394.500 701.523 C 383.705 698.320, 382.652 696.651, 380.910 680 C 379.499 666.505, 375.068 570.059, 375.706 566.739 C 376.418 563.036, 381.023 559.341, 385.965 558.506 C 389.905 557.840, 390 557.728, 390 553.758 L 390 549.691 377.250 550.342 C 370.238 550.699, 358.836 550.994, 351.914 550.996 L 339.328 551 335.482 564.250 C 330.127 582.697, 303.279 653.074, 301.351 653.716 C 300.856 653.881, 298.015 648.275, 295.039 641.258 C 292.063 634.241, 282.816 613.425, 274.490 595 C 266.164 576.575, 258.366 559.025, 257.161 556 L 254.971 550.500 227.985 550.500 L 201 550.500 201 554.077 M 413 553.873 L 413 557.877 417.750 558.529 C 429.839 560.187, 432.370 561.240, 434.500 565.500 C 436.416 569.332, 436.512 571.815, 436.791 624.491 C 437.101 683.165, 436.680 690.572, 432.795 694.735 C 429.619 698.139, 423.524 701.092, 418.080 701.865 L 413.500 702.515 413.185 706.903 L 412.871 711.291 418.185 710.684 C 431.935 709.113, 447.581 708.843, 460.880 709.947 C 470.421 710.738, 475.595 710.805, 476.255 710.145 C 476.803 709.597, 476.966 707.630, 476.617 705.773 C 476.014 702.558, 475.689 702.336, 469.796 701.119 C 462.014 699.511, 456.536 696.748, 454.265 693.282 C 452.643 690.809, 452.476 686.210, 452.209 636.554 C 452.035 604.325, 452.282 582.917, 452.821 583.509 C 453.318 584.054, 475.004 611.050, 501.012 643.500 C 527.020 675.950, 550.126 704.413, 552.358 706.750 C 555.668 710.217, 557.082 711, 560.029 711 L 563.641 711 563.570 643.750 C 563.532 606.763, 563.855 574.826, 564.290 572.779 C 565.874 565.319, 572.948 559.979, 583.250 558.469 C 587.997 557.773, 588 557.770, 588 553.826 L 588 549.880 575.750 550.690 C 560.422 551.704, 553.784 551.706, 537.750 550.702 L 525 549.903 525 553.844 L 525 557.785 532.019 559.505 C 540.989 561.703, 545.144 564.492, 546.762 569.401 C 547.709 572.274, 547.958 582.825, 547.762 611.713 L 547.500 650.198 537.819 637.849 C 532.494 631.057, 518.166 613.125, 505.977 598 C 493.789 582.875, 480.821 565.902, 477.159 560.282 L 470.500 550.064 461.500 550.782 C 449.897 551.708, 442.541 551.687, 426.250 550.684 L 413 549.869 413 553.873 M 612 554.250 C 612 556.973, 612.425 558, 613.553 558 C 614.407 558, 618.247 558.715, 622.087 559.588 C 627.011 560.708, 629.482 561.814, 630.468 563.338 C 631.670 565.196, 631.597 572.682, 629.954 616.500 C 627.688 676.931, 626.733 691.407, 624.862 693.682 C 623.197 695.706, 612.787 700.505, 608 701.455 C 600.928 702.858, 600.867 702.906, 601.195 706.835 L 601.500 710.500 612 710 C 626.972 709.287, 644.783 709.382, 657.250 710.240 L 668 710.981 668 706.490 C 668 702.502, 667.749 702, 665.753 702 C 661.744 702, 647.681 696.772, 645.309 694.400 C 642.541 691.632, 642.570 696.251, 644.994 643.500 C 646.081 619.850, 647.003 598.250, 647.044 595.500 C 647.099 591.773, 647.377 590.882, 648.137 592 C 648.698 592.825, 660.775 619.600, 674.974 651.500 C 699.980 707.677, 700.882 709.509, 703.665 709.796 C 709.339 710.381, 710.779 707.534, 733.417 650.951 C 745.162 621.595, 755.209 597.430, 755.744 597.252 C 757.250 596.750, 757.849 604.834, 758.949 640.500 C 759.508 658.650, 760.170 677.100, 760.419 681.500 C 761.064 692.866, 759.840 695.821, 753.071 699.250 C 750.085 700.763, 746.571 702, 745.263 702 C 743.084 702, 742.911 702.355, 743.193 706.250 L 743.500 710.500 755 710 C 771.286 709.292, 788.882 709.380, 800.306 710.227 L 810.113 710.954 809.806 706.894 C 809.508 702.947, 809.348 702.782, 804 700.928 C 796.789 698.427, 794.493 695.651, 793.121 687.775 C 792.041 681.570, 787.011 586.680, 787.004 572.361 C 786.999 563.512, 788.624 561.134, 796.161 558.960 C 801.060 557.547, 801.526 557.155, 801.814 554.203 C 802.008 552.216, 801.625 550.801, 800.814 550.503 C 800.091 550.237, 788.504 550.353, 775.063 550.760 L 750.627 551.500 746.416 565.500 C 744.101 573.200, 740.104 585.125, 737.535 592 C 729.325 613.971, 713.778 653.472, 713.007 654.319 C 712.597 654.770, 710.218 650.270, 707.721 644.319 C 705.224 638.369, 697.894 621.800, 691.433 607.500 C 684.972 593.200, 676.660 574.551, 672.961 566.059 L 666.236 550.617 639.118 550.559 L 612 550.500 612 554.250" stroke="none" fill="#170ff8" fill-rule="evenodd" style="--darkreader-inline-fill: #0c06c2; --darkreader-inline-stroke: none;" data-darkreader-inline-fill="" data-darkreader-inline-stroke=""></path><path d="M 529.298 290.709 C 527.461 293.411, 527.458 293.612, 529.199 297 C 530.786 300.089, 530.997 300.219, 530.998 298.110 C 530.999 296.796, 530.212 295.123, 529.250 294.392 C 527.583 293.127, 527.583 293.062, 529.250 293.032 C 530.212 293.014, 531.032 292.212, 531.070 291.250 C 531.132 289.716, 531.234 289.738, 531.894 291.423 C 532.308 292.480, 533.619 293.417, 534.806 293.504 C 536.489 293.628, 536.724 293.372, 535.869 292.343 C 535.267 291.616, 534.305 291.312, 533.732 291.666 C 533.160 292.019, 532.981 291.840, 533.334 291.268 C 533.688 290.695, 533.352 289.707, 532.587 289.072 C 531.483 288.156, 530.802 288.495, 529.298 290.709 M 537.500 297 C 537.160 297.550, 537.021 298.034, 537.191 298.077 C 540.484 298.892, 541.044 298.758, 539.933 297.420 C 538.532 295.732, 538.308 295.693, 537.500 297 M 534 299.059 C 534 299.641, 534.450 299.840, 535 299.500 C 535.550 299.160, 536 298.684, 536 298.441 C 536 298.198, 535.550 298, 535 298 C 534.450 298, 534 298.477, 534 299.059 M 528.079 300.583 C 528.127 301.748, 528.364 301.985, 528.683 301.188 C 528.972 300.466, 528.936 299.603, 528.604 299.271 C 528.272 298.939, 528.036 299.529, 528.079 300.583 M 542 301.378 C 542 301.585, 542.788 302.373, 543.750 303.128 C 545.336 304.371, 545.371 304.336, 544.128 302.750 C 542.821 301.084, 542 300.555, 542 301.378 M 529.195 307.500 C 529.215 309.150, 529.439 309.704, 529.693 308.731 C 529.947 307.758, 529.930 306.408, 529.656 305.731 C 529.382 305.054, 529.175 305.850, 529.195 307.500 M 546 306.378 C 546 306.585, 546.788 307.373, 547.750 308.128 C 549.336 309.371, 549.371 309.336, 548.128 307.750 C 546.821 306.084, 546 305.555, 546 306.378 M 526.079 309.583 C 526.127 310.748, 526.364 310.985, 526.683 310.188 C 526.972 309.466, 526.936 308.603, 526.604 308.271 C 526.272 307.939, 526.036 308.529, 526.079 309.583 M 413 310.059 C 413 310.641, 413.450 310.840, 414 310.500 C 414.550 310.160, 415 309.684, 415 309.441 C 415 309.198, 414.550 309, 414 309 C 413.450 309, 413 309.477, 413 310.059 M 422.813 311.683 C 423.534 311.972, 424.397 311.936, 424.729 311.604 C 425.061 311.272, 424.471 311.036, 423.417 311.079 C 422.252 311.127, 422.015 311.364, 422.813 311.683 M 550 311.378 C 550 311.585, 550.788 312.373, 551.750 313.128 C 553.336 314.371, 553.371 314.336, 552.128 312.750 C 550.821 311.084, 550 310.555, 550 311.378 M 414.079 315.583 C 414.127 316.748, 414.364 316.985, 414.683 316.188 C 414.972 315.466, 414.936 314.603, 414.604 314.271 C 414.272 313.939, 414.036 314.529, 414.079 315.583 M 528.195 318.500 C 528.215 320.150, 528.439 320.704, 528.693 319.731 C 528.947 318.758, 528.930 317.408, 528.656 316.731 C 528.382 316.054, 528.175 316.850, 528.195 318.500 M 451.813 317.683 C 452.534 317.972, 453.397 317.936, 453.729 317.604 C 454.061 317.272, 453.471 317.036, 452.417 317.079 C 451.252 317.127, 451.015 317.364, 451.813 317.683 M 456.813 318.683 C 457.534 318.972, 458.397 318.936, 458.729 318.604 C 459.061 318.272, 458.471 318.036, 457.417 318.079 C 456.252 318.127, 456.015 318.364, 456.813 318.683 M 415.079 320.583 C 415.127 321.748, 415.364 321.985, 415.683 321.188 C 415.972 320.466, 415.936 319.603, 415.604 319.271 C 415.272 318.939, 415.036 319.529, 415.079 320.583 M 416.079 325.583 C 416.127 326.748, 416.364 326.985, 416.683 326.188 C 416.972 325.466, 416.936 324.603, 416.604 324.271 C 416.272 323.939, 416.036 324.529, 416.079 325.583 M 485.813 324.683 C 486.534 324.972, 487.397 324.936, 487.729 324.604 C 488.061 324.272, 487.471 324.036, 486.417 324.079 C 485.252 324.127, 485.015 324.364, 485.813 324.683 M 527.195 328.500 C 527.215 330.150, 527.439 330.704, 527.693 329.731 C 527.947 328.758, 527.930 327.408, 527.656 326.731 C 527.382 326.054, 527.175 326.850, 527.195 328.500 M 584.600 334.674 C 585.205 335.128, 585.985 336.175, 586.332 337 C 586.777 338.054, 586.896 337.930, 586.732 336.583 C 586.605 335.528, 585.825 334.482, 585 334.257 C 584.035 333.994, 583.893 334.143, 584.600 334.674 M 526.195 338.500 C 526.215 340.150, 526.439 340.704, 526.693 339.731 C 526.947 338.758, 526.930 337.408, 526.656 336.731 C 526.382 336.054, 526.175 336.850, 526.195 338.500 M 564.079 340.583 C 564.127 341.748, 564.364 341.985, 564.683 341.188 C 564.972 340.466, 564.936 339.603, 564.604 339.271 C 564.272 338.939, 564.036 339.529, 564.079 340.583 M 585.079 343.583 C 585.127 344.748, 585.364 344.985, 585.683 344.188 C 585.972 343.466, 585.936 342.603, 585.604 342.271 C 585.272 341.939, 585.036 342.529, 585.079 343.583 M 420.079 346.583 C 420.127 347.748, 420.364 347.985, 420.683 347.188 C 420.972 346.466, 420.936 345.603, 420.604 345.271 C 420.272 344.939, 420.036 345.529, 420.079 346.583 M 525.195 349.500 C 525.215 351.150, 525.439 351.704, 525.693 350.731 C 525.947 349.758, 525.930 348.408, 525.656 347.731 C 525.382 347.054, 525.175 347.850, 525.195 349.500 M 517.079 350.583 C 517.127 351.748, 517.364 351.985, 517.683 351.188 C 517.972 350.466, 517.936 349.603, 517.604 349.271 C 517.272 348.939, 517.036 349.529, 517.079 350.583 M 584.158 351 C 584.158 352.375, 584.385 352.938, 584.662 352.250 C 584.940 351.563, 584.940 350.438, 584.662 349.750 C 584.385 349.063, 584.158 349.625, 584.158 351 M 421.079 351.583 C 421.127 352.748, 421.364 352.985, 421.683 352.188 C 421.972 351.466, 421.936 350.603, 421.604 350.271 C 421.272 349.939, 421.036 350.529, 421.079 351.583 M 505.374 361.500 C 505.376 367.550, 505.541 369.896, 505.740 366.713 C 505.939 363.531, 505.937 358.581, 505.736 355.713 C 505.535 352.846, 505.372 355.450, 505.374 361.500 M 563.158 353 C 563.158 354.375, 563.385 354.938, 563.662 354.250 C 563.940 353.563, 563.940 352.438, 563.662 351.750 C 563.385 351.063, 563.158 351.625, 563.158 353 M 568.269 355.693 C 569.242 355.947, 570.592 355.930, 571.269 355.656 C 571.946 355.382, 571.150 355.175, 569.500 355.195 C 567.850 355.215, 567.296 355.439, 568.269 355.693 M 578.269 356.693 C 579.242 356.947, 580.592 356.930, 581.269 356.656 C 581.946 356.382, 581.150 356.175, 579.500 356.195 C 577.850 356.215, 577.296 356.439, 578.269 356.693 M 524.195 359.500 C 524.215 361.150, 524.439 361.704, 524.693 360.731 C 524.947 359.758, 524.930 358.408, 524.656 357.731 C 524.382 357.054, 524.175 357.850, 524.195 359.500 M 550.232 360 C 550.232 361.925, 550.438 362.712, 550.689 361.750 C 550.941 360.788, 550.941 359.212, 550.689 358.250 C 550.438 357.288, 550.232 358.075, 550.232 360 M 515.079 359.583 C 515.127 360.748, 515.364 360.985, 515.683 360.188 C 515.972 359.466, 515.936 358.603, 515.604 358.271 C 515.272 357.939, 515.036 358.529, 515.079 359.583 M 558.899 359.299 C 559.365 359.765, 561.265 359.989, 563.123 359.798 C 566.417 359.459, 566.396 359.438, 562.276 358.951 C 559.953 358.677, 558.433 358.833, 558.899 359.299 M 576.079 366.583 C 576.127 367.748, 576.364 367.985, 576.683 367.188 C 576.972 366.466, 576.936 365.603, 576.604 365.271 C 576.272 364.939, 576.036 365.529, 576.079 366.583 M 523.232 370 C 523.232 371.925, 523.438 372.712, 523.689 371.750 C 523.941 370.788, 523.941 369.212, 523.689 368.250 C 523.438 367.288, 523.232 368.075, 523.232 370 M 549.252 373.500 C 549.263 375.700, 549.468 376.482, 549.707 375.238 C 549.946 373.994, 549.937 372.194, 549.687 371.238 C 549.437 370.282, 549.241 371.300, 549.252 373.500 M 425.079 372.583 C 425.127 373.748, 425.364 373.985, 425.683 373.188 C 425.972 372.466, 425.936 371.603, 425.604 371.271 C 425.272 370.939, 425.036 371.529, 425.079 372.583 M 575.079 372.583 C 575.127 373.748, 575.364 373.985, 575.683 373.188 C 575.972 372.466, 575.936 371.603, 575.604 371.271 C 575.272 370.939, 575.036 371.529, 575.079 372.583 M 495.750 372.706 C 496.988 372.944, 499.012 372.944, 500.250 372.706 C 501.488 372.467, 500.475 372.272, 498 372.272 C 495.525 372.272, 494.512 372.467, 495.750 372.706 M 480.762 373.707 C 482.006 373.946, 483.806 373.937, 484.762 373.687 C 485.718 373.437, 484.700 373.241, 482.500 373.252 C 480.300 373.263, 479.518 373.468, 480.762 373.707 M 465.762 374.707 C 467.006 374.946, 468.806 374.937, 469.762 374.687 C 470.718 374.437, 469.700 374.241, 467.500 374.252 C 465.300 374.263, 464.518 374.468, 465.762 374.707 M 449.750 375.706 C 450.988 375.944, 453.012 375.944, 454.250 375.706 C 455.488 375.467, 454.475 375.272, 452 375.272 C 449.525 375.272, 448.512 375.467, 449.750 375.706 M 426.079 377.583 C 426.127 378.748, 426.364 378.985, 426.683 378.188 C 426.972 377.466, 426.936 376.603, 426.604 376.271 C 426.272 375.939, 426.036 376.529, 426.079 377.583 M 508 378 L 504.500 378.737 507.691 378.868 C 509.446 378.941, 511.160 378.550, 511.500 378 C 511.840 377.450, 511.979 377.059, 511.809 377.132 C 511.639 377.204, 509.925 377.595, 508 378 M 522.195 380.500 C 522.215 382.150, 522.439 382.704, 522.693 381.731 C 522.947 380.758, 522.930 379.408, 522.656 378.731 C 522.382 378.054, 522.175 378.850, 522.195 380.500 M 574.079 379.583 C 574.127 380.748, 574.364 380.985, 574.683 380.188 C 574.972 379.466, 574.936 378.603, 574.604 378.271 C 574.272 377.939, 574.036 378.529, 574.079 379.583 M 439.195 381.500 C 439.215 383.150, 439.439 383.704, 439.693 382.731 C 439.947 381.758, 439.930 380.408, 439.656 379.731 C 439.382 379.054, 439.175 379.850, 439.195 381.500 M 488.264 379.718 C 489.784 379.947, 492.034 379.941, 493.264 379.704 C 494.494 379.467, 493.250 379.279, 490.500 379.286 C 487.750 379.294, 486.744 379.488, 488.264 379.718 M 466.345 381.543 C 466.019 382.392, 466.034 383.367, 466.376 383.710 C 466.719 384.053, 467 383.608, 467 382.721 C 467 381.518, 468.203 381.015, 471.750 380.735 L 476.500 380.360 471.719 380.180 C 468.212 380.048, 466.779 380.411, 466.345 381.543 M 427.079 382.583 C 427.127 383.748, 427.364 383.985, 427.683 383.188 C 427.972 382.466, 427.936 381.603, 427.604 381.271 C 427.272 380.939, 427.036 381.529, 427.079 382.583 M 548.079 385.583 C 548.127 386.748, 548.364 386.985, 548.683 386.188 C 548.972 385.466, 548.936 384.603, 548.604 384.271 C 548.272 383.939, 548.036 384.529, 548.079 385.583 M 567.750 384.662 C 568.438 384.940, 569.563 384.940, 570.250 384.662 C 570.938 384.385, 570.375 384.158, 569 384.158 C 567.625 384.158, 567.063 384.385, 567.750 384.662 M 560.750 385.662 C 561.438 385.940, 562.563 385.940, 563.250 385.662 C 563.938 385.385, 563.375 385.158, 562 385.158 C 560.625 385.158, 560.063 385.385, 560.750 385.662 M 552.750 386.662 C 553.438 386.940, 554.563 386.940, 555.250 386.662 C 555.938 386.385, 555.375 386.158, 554 386.158 C 552.625 386.158, 552.063 386.385, 552.750 386.662 M 521.195 390.500 C 521.215 392.150, 521.439 392.704, 521.693 391.731 C 521.947 390.758, 521.930 389.408, 521.656 388.731 C 521.382 388.054, 521.175 388.850, 521.195 390.500 M 570.211 389.399 C 570.920 390.169, 571.658 390.649, 571.850 390.466 C 572.443 389.902, 570.940 388, 569.902 388 C 569.362 388, 569.501 388.630, 570.211 389.399 M 440.195 391.500 C 440.215 393.150, 440.439 393.704, 440.693 392.731 C 440.947 391.758, 440.930 390.408, 440.656 389.731 C 440.382 389.054, 440.175 389.850, 440.195 391.500 M 562.750 389.662 C 563.438 389.940, 564.563 389.940, 565.250 389.662 C 565.938 389.385, 565.375 389.158, 564 389.158 C 562.625 389.158, 562.063 389.385, 562.750 389.662 M 554.750 390.662 C 555.438 390.940, 556.563 390.940, 557.250 390.662 C 557.938 390.385, 557.375 390.158, 556 390.158 C 554.625 390.158, 554.063 390.385, 554.750 390.662 M 467.232 394 C 467.232 395.925, 467.438 396.712, 467.689 395.750 C 467.941 394.788, 467.941 393.212, 467.689 392.250 C 467.438 391.288, 467.232 392.075, 467.232 394 M 547.750 391.662 C 548.438 391.940, 549.563 391.940, 550.250 391.662 C 550.938 391.385, 550.375 391.158, 549 391.158 C 547.625 391.158, 547.063 391.385, 547.750 391.662 M 539.750 392.662 C 540.438 392.940, 541.563 392.940, 542.250 392.662 C 542.938 392.385, 542.375 392.158, 541 392.158 C 539.625 392.158, 539.063 392.385, 539.750 392.662 M 570.158 397 C 570.158 398.375, 570.385 398.938, 570.662 398.250 C 570.940 397.563, 570.940 396.438, 570.662 395.750 C 570.385 395.063, 570.158 395.625, 570.158 397 M 430.079 398.583 C 430.127 399.748, 430.364 399.985, 430.683 399.188 C 430.972 398.466, 430.936 397.603, 430.604 397.271 C 430.272 396.939, 430.036 397.529, 430.079 398.583 M 441.195 401.500 C 441.215 403.150, 441.439 403.704, 441.693 402.731 C 441.947 401.758, 441.930 400.408, 441.656 399.731 C 441.382 399.054, 441.175 399.850, 441.195 401.500 M 520.195 401.500 C 520.215 403.150, 520.439 403.704, 520.693 402.731 C 520.947 401.758, 520.930 400.408, 520.656 399.731 C 520.382 399.054, 520.175 399.850, 520.195 401.500 M 431.079 403.583 C 431.127 404.748, 431.364 404.985, 431.683 404.188 C 431.972 403.466, 431.936 402.603, 431.604 402.271 C 431.272 401.939, 431.036 402.529, 431.079 403.583 M 534.349 411 C 534.349 415.675, 534.522 417.587, 534.732 415.250 C 534.943 412.913, 534.943 409.087, 534.732 406.750 C 534.522 404.413, 534.349 406.325, 534.349 411 M 569.158 405 C 569.158 406.375, 569.385 406.938, 569.662 406.250 C 569.940 405.563, 569.940 404.438, 569.662 403.750 C 569.385 403.063, 569.158 403.625, 569.158 405 M 468.232 407 C 468.232 408.925, 468.438 409.712, 468.689 408.750 C 468.941 407.788, 468.941 406.212, 468.689 405.250 C 468.438 404.288, 468.232 405.075, 468.232 407 M 432.079 408.583 C 432.127 409.748, 432.364 409.985, 432.683 409.188 C 432.972 408.466, 432.936 407.603, 432.604 407.271 C 432.272 406.939, 432.036 407.529, 432.079 408.583 M 442.195 411.500 C 442.215 413.150, 442.439 413.704, 442.693 412.731 C 442.947 411.758, 442.930 410.408, 442.656 409.731 C 442.382 409.054, 442.175 409.850, 442.195 411.500 M 518 410 C 517.099 410.582, 516.975 410.975, 517.691 410.985 C 518.346 410.993, 519.160 410.550, 519.500 410 C 520.267 408.758, 519.921 408.758, 518 410 M 568.158 413 C 568.158 414.375, 568.385 414.938, 568.662 414.250 C 568.940 413.563, 568.940 412.438, 568.662 411.750 C 568.385 411.063, 568.158 411.625, 568.158 413 M 526.193 415.678 C 527.295 415.969, 528.022 417.413, 528.275 419.812 L 528.664 423.500 528.832 419.250 C 528.983 415.429, 528.773 415.012, 526.750 415.116 C 525.148 415.199, 524.988 415.361, 526.193 415.678 M 469.232 420 C 469.232 421.925, 469.438 422.712, 469.689 421.750 C 469.941 420.788, 469.941 419.212, 469.689 418.250 C 469.438 417.288, 469.232 418.075, 469.232 420 M 485.813 418.683 C 486.534 418.972, 487.397 418.936, 487.729 418.604 C 488.061 418.272, 487.471 418.036, 486.417 418.079 C 485.252 418.127, 485.015 418.364, 485.813 418.683 M 443.195 421.500 C 443.215 423.150, 443.439 423.704, 443.693 422.731 C 443.947 421.758, 443.930 420.408, 443.656 419.731 C 443.382 419.054, 443.175 419.850, 443.195 421.500 M 481.813 419.683 C 482.534 419.972, 483.397 419.936, 483.729 419.604 C 484.061 419.272, 483.471 419.036, 482.417 419.079 C 481.252 419.127, 481.015 419.364, 481.813 419.683 M 436.079 429.583 C 436.127 430.748, 436.364 430.985, 436.683 430.188 C 436.972 429.466, 436.936 428.603, 436.604 428.271 C 436.272 427.939, 436.036 428.529, 436.079 429.583 M 444.195 431.500 C 444.215 433.150, 444.439 433.704, 444.693 432.731 C 444.947 431.758, 444.930 430.408, 444.656 429.731 C 444.382 429.054, 444.175 429.850, 444.195 431.500 M 437.079 434.583 C 437.127 435.748, 437.364 435.985, 437.683 435.188 C 437.972 434.466, 437.936 433.603, 437.604 433.271 C 437.272 432.939, 437.036 433.529, 437.079 434.583 M 527.136 435.667 C 527.061 437.408, 526.438 439.060, 525.750 439.338 C 524.771 439.733, 524.778 439.859, 525.781 439.921 C 527.428 440.023, 528.279 437.780, 527.715 434.823 C 527.369 433.008, 527.243 433.192, 527.136 435.667 M 438.079 439.583 C 438.127 440.748, 438.364 440.985, 438.683 440.188 C 438.972 439.466, 438.936 438.603, 438.604 438.271 C 438.272 437.939, 438.036 438.529, 438.079 439.583 M 445.195 441.500 C 445.215 443.150, 445.439 443.704, 445.693 442.731 C 445.947 441.758, 445.930 440.408, 445.656 439.731 C 445.382 439.054, 445.175 439.850, 445.195 441.500 M 466.079 444.583 C 466.127 445.748, 466.364 445.985, 466.683 445.188 C 466.972 444.466, 466.936 443.603, 466.604 443.271 C 466.272 442.939, 466.036 443.529, 466.079 444.583 M 446.195 451.500 C 446.215 453.150, 446.439 453.704, 446.693 452.731 C 446.947 451.758, 446.930 450.408, 446.656 449.731 C 446.382 449.054, 446.175 449.850, 446.195 451.500 M 441.079 455.583 C 441.127 456.748, 441.364 456.985, 441.683 456.188 C 441.972 455.466, 441.936 454.603, 441.604 454.271 C 441.272 453.939, 441.036 454.529, 441.079 455.583 M 494.872 456.750 C 493.629 458.336, 493.664 458.371, 495.250 457.128 C 496.916 455.821, 497.445 455, 496.622 455 C 496.415 455, 495.627 455.788, 494.872 456.750 M 463.079 458.583 C 463.127 459.748, 463.364 459.985, 463.683 459.188 C 463.972 458.466, 463.936 457.603, 463.604 457.271 C 463.272 456.939, 463.036 457.529, 463.079 458.583 M 442.079 460.583 C 442.127 461.748, 442.364 461.985, 442.683 461.188 C 442.972 460.466, 442.936 459.603, 442.604 459.271 C 442.272 458.939, 442.036 459.529, 442.079 460.583 M 447.195 461.500 C 447.215 463.150, 447.439 463.704, 447.693 462.731 C 447.947 461.758, 447.930 460.408, 447.656 459.731 C 447.382 459.054, 447.175 459.850, 447.195 461.500 M 443.079 465.583 C 443.127 466.748, 443.364 466.985, 443.683 466.188 C 443.972 465.466, 443.936 464.603, 443.604 464.271 C 443.272 463.939, 443.036 464.529, 443.079 465.583 M 448.195 471.500 C 448.215 473.150, 448.439 473.704, 448.693 472.731 C 448.947 471.758, 448.930 470.408, 448.656 469.731 C 448.382 469.054, 448.175 469.850, 448.195 471.500 M 483.872 470.750 C 482.629 472.336, 482.664 472.371, 484.250 471.128 C 485.916 469.821, 486.445 469, 485.622 469 C 485.415 469, 484.627 469.788, 483.872 470.750 M 459.079 477.583 C 459.127 478.748, 459.364 478.985, 459.683 478.188 C 459.972 477.466, 459.936 476.603, 459.604 476.271 C 459.272 475.939, 459.036 476.529, 459.079 477.583 M 449.195 481.500 C 449.215 483.150, 449.439 483.704, 449.693 482.731 C 449.947 481.758, 449.930 480.408, 449.656 479.731 C 449.382 479.054, 449.175 479.850, 449.195 481.500 M 472.872 484.750 C 471.629 486.336, 471.664 486.371, 473.250 485.128 C 474.212 484.373, 475 483.585, 475 483.378 C 475 482.555, 474.179 483.084, 472.872 484.750 M 447.079 486.583 C 447.127 487.748, 447.364 487.985, 447.683 487.188 C 447.972 486.466, 447.936 485.603, 447.604 485.271 C 447.272 484.939, 447.036 485.529, 447.079 486.583 M 448.079 491.583 C 448.127 492.748, 448.364 492.985, 448.683 492.188 C 448.972 491.466, 448.936 490.603, 448.604 490.271 C 448.272 489.939, 448.036 490.529, 448.079 491.583 M 450.158 492 C 450.158 493.375, 450.385 493.938, 450.662 493.250 C 450.940 492.563, 450.940 491.438, 450.662 490.750 C 450.385 490.063, 450.158 490.625, 450.158 492 M 456.079 491.583 C 456.127 492.748, 456.364 492.985, 456.683 492.188 C 456.972 491.466, 456.936 490.603, 456.604 490.271 C 456.272 489.939, 456.036 490.529, 456.079 491.583 M 449.079 496.583 C 449.127 497.748, 449.364 497.985, 449.683 497.188 C 449.972 496.466, 449.936 495.603, 449.604 495.271 C 449.272 494.939, 449.036 495.529, 449.079 496.583 M 455.031 495.500 C 455.031 496.050, 455.467 497.175, 456 498 C 456.533 498.825, 456.969 499.050, 456.969 498.500 C 456.969 497.950, 456.533 496.825, 456 496 C 455.467 495.175, 455.031 494.950, 455.031 495.500 M 460.440 498.098 C 459.574 499.498, 461.756 499.999, 462.871 498.656 C 463.699 497.657, 463.594 497.333, 462.440 497.333 C 461.600 497.333, 460.699 497.677, 460.440 498.098 M 450.639 500.775 C 450.376 501.201, 450.528 503.113, 450.978 505.025 L 451.795 508.500 451.898 504.250 C 451.997 500.141, 451.640 499.156, 450.639 500.775 M 454 501 C 454 501.550, 454.450 502, 455 502 C 455.550 502, 456 501.550, 456 501 C 456 500.450, 455.550 500, 455 500 C 454.450 500, 454 500.450, 454 501 M 458.500 501 C 458.160 501.550, 458.246 502.007, 458.691 502.015 C 459.136 502.024, 458.825 502.508, 458 503.091 C 456.827 503.921, 456.808 504.069, 457.913 503.772 C 458.690 503.563, 459.437 502.628, 459.574 501.696 C 459.854 499.788, 459.422 499.508, 458.500 501 M 453.179 506.250 C 452.696 508.038, 452.428 509.658, 452.584 509.850 C 453.144 510.544, 455.011 508.844, 456.050 506.694 C 457.096 504.530, 457.088 504.527, 455.436 506.500 C 453.804 508.451, 453.778 508.433, 454.400 505.750 C 455.298 501.878, 454.244 502.310, 453.179 506.250 M 201.750 549.662 C 202.438 549.940, 203.563 549.940, 204.250 549.662 C 204.938 549.385, 204.375 549.158, 203 549.158 C 201.625 549.158, 201.063 549.385, 201.750 549.662 M 252.500 549.681 C 253.600 549.984, 254.872 550.742, 255.326 551.366 C 255.872 552.115, 256.015 551.991, 255.748 551 C 255.525 550.175, 254.254 549.417, 252.922 549.315 C 251.012 549.170, 250.923 549.247, 252.500 549.681 M 385.250 549.689 C 386.212 549.941, 387.788 549.941, 388.750 549.689 C 389.712 549.438, 388.925 549.232, 387 549.232 C 385.075 549.232, 384.288 549.438, 385.250 549.689 M 413.750 549.662 C 414.438 549.940, 415.563 549.940, 416.250 549.662 C 416.938 549.385, 416.375 549.158, 415 549.158 C 413.625 549.158, 413.063 549.385, 413.750 549.662 M 468.813 549.683 C 469.534 549.972, 470.397 549.936, 470.729 549.604 C 471.061 549.272, 470.471 549.036, 469.417 549.079 C 468.252 549.127, 468.015 549.364, 468.813 549.683 M 525.750 549.662 C 526.438 549.940, 527.563 549.940, 528.250 549.662 C 528.938 549.385, 528.375 549.158, 527 549.158 C 525.625 549.158, 525.063 549.385, 525.750 549.662 M 584.750 549.662 C 585.438 549.940, 586.563 549.940, 587.250 549.662 C 587.938 549.385, 587.375 549.158, 586 549.158 C 584.625 549.158, 584.063 549.385, 584.750 549.662 M 613.750 549.662 C 614.438 549.940, 615.563 549.940, 616.250 549.662 C 616.938 549.385, 616.375 549.158, 615 549.158 C 613.625 549.158, 613.063 549.385, 613.750 549.662 M 663 549.383 C 663 549.594, 663.901 550.002, 665.001 550.290 C 666.102 550.578, 666.751 550.405, 666.442 549.907 C 665.904 549.036, 663 548.594, 663 549.383 M 795 549.391 C 795 549.605, 796.543 549.961, 798.430 550.182 C 800.316 550.402, 801.640 550.226, 801.371 549.791 C 800.887 549.008, 795 548.638, 795 549.391 M 215.264 550.718 C 216.784 550.947, 219.034 550.941, 220.264 550.704 C 221.494 550.467, 220.250 550.279, 217.500 550.286 C 214.750 550.294, 213.744 550.488, 215.264 550.718 M 237.750 550.706 C 238.988 550.944, 241.012 550.944, 242.250 550.706 C 243.488 550.467, 242.475 550.272, 240 550.272 C 237.525 550.272, 236.512 550.467, 237.750 550.706 M 340.250 550.689 C 341.212 550.941, 342.788 550.941, 343.750 550.689 C 344.712 550.438, 343.925 550.232, 342 550.232 C 340.075 550.232, 339.288 550.438, 340.250 550.689 M 365.250 550.716 C 366.762 550.945, 369.238 550.945, 370.750 550.716 C 372.262 550.487, 371.025 550.300, 368 550.300 C 364.975 550.300, 363.738 550.487, 365.250 550.716 M 425.762 550.707 C 427.006 550.946, 428.806 550.937, 429.762 550.687 C 430.718 550.437, 429.700 550.241, 427.500 550.252 C 425.300 550.263, 424.518 550.468, 425.762 550.707 M 459.750 550.662 C 460.438 550.940, 461.563 550.940, 462.250 550.662 C 462.938 550.385, 462.375 550.158, 461 550.158 C 459.625 550.158, 459.063 550.385, 459.750 550.662 M 536.762 550.707 C 538.006 550.946, 539.806 550.937, 540.762 550.687 C 541.718 550.437, 540.700 550.241, 538.500 550.252 C 536.300 550.263, 535.518 550.468, 536.762 550.707 M 573.250 550.689 C 574.212 550.941, 575.788 550.941, 576.750 550.689 C 577.712 550.438, 576.925 550.232, 575 550.232 C 573.075 550.232, 572.288 550.438, 573.250 550.689 M 626.264 550.718 C 627.784 550.947, 630.034 550.941, 631.264 550.704 C 632.494 550.467, 631.250 550.279, 628.500 550.286 C 625.750 550.294, 624.744 550.488, 626.264 550.718 M 648.750 550.706 C 649.987 550.944, 652.013 550.944, 653.250 550.706 C 654.487 550.467, 653.475 550.272, 651 550.272 C 648.525 550.272, 647.513 550.467, 648.750 550.706 M 750.629 550.791 C 750.360 551.226, 751.684 551.402, 753.570 551.182 C 755.457 550.961, 757 550.605, 757 550.391 C 757 549.638, 751.113 550.008, 750.629 550.791 M 776.768 550.725 C 778.565 550.947, 781.265 550.943, 782.768 550.715 C 784.271 550.486, 782.800 550.304, 779.500 550.310 C 776.200 550.315, 774.971 550.502, 776.768 550.725 M 200.232 554 C 200.232 555.925, 200.438 556.712, 200.689 555.750 C 200.941 554.788, 200.941 553.212, 200.689 552.250 C 200.438 551.288, 200.232 552.075, 200.232 554 M 390.232 554 C 390.232 555.925, 390.438 556.712, 390.689 555.750 C 390.941 554.788, 390.941 553.212, 390.689 552.250 C 390.438 551.288, 390.232 552.075, 390.232 554 M 412.195 553.500 C 412.215 555.150, 412.439 555.704, 412.693 554.731 C 412.947 553.758, 412.930 552.408, 412.656 551.731 C 412.382 551.054, 412.175 551.850, 412.195 553.500 M 442.750 551.723 C 444.538 551.945, 447.462 551.945, 449.250 551.723 C 451.038 551.502, 449.575 551.320, 446 551.320 C 442.425 551.320, 440.962 551.502, 442.750 551.723 M 524.158 553 C 524.158 554.375, 524.385 554.938, 524.662 554.250 C 524.940 553.563, 524.940 552.438, 524.662 551.750 C 524.385 551.063, 524.158 551.625, 524.158 553 M 553.750 551.723 C 555.538 551.945, 558.462 551.945, 560.250 551.723 C 562.038 551.502, 560.575 551.320, 557 551.320 C 553.425 551.320, 551.962 551.502, 553.750 551.723 M 588.079 554.583 C 588.127 555.748, 588.364 555.985, 588.683 555.188 C 588.972 554.466, 588.936 553.603, 588.604 553.271 C 588.272 552.939, 588.036 553.529, 588.079 554.583 M 799.500 558 C 797.870 558.701, 797.812 558.872, 799.191 558.930 C 800.121 558.968, 801.160 558.550, 801.500 558 C 802.211 556.850, 802.176 556.850, 799.500 558 M 202.750 558.662 C 203.438 558.940, 204.563 558.940, 205.250 558.662 C 205.938 558.385, 205.375 558.158, 204 558.158 C 202.625 558.158, 202.063 558.385, 202.750 558.662 M 386.750 558.662 C 387.438 558.940, 388.563 558.940, 389.250 558.662 C 389.938 558.385, 389.375 558.158, 388 558.158 C 386.625 558.158, 386.063 558.385, 386.750 558.662 M 413.750 558.662 C 414.438 558.940, 415.563 558.940, 416.250 558.662 C 416.938 558.385, 416.375 558.158, 415 558.158 C 413.625 558.158, 413.063 558.385, 413.750 558.662 M 584.269 558.693 C 585.242 558.947, 586.592 558.930, 587.269 558.656 C 587.946 558.382, 587.150 558.175, 585.500 558.195 C 583.850 558.215, 583.296 558.439, 584.269 558.693 M 613.750 558.662 C 614.438 558.940, 615.563 558.940, 616.250 558.662 C 616.938 558.385, 616.375 558.158, 615 558.158 C 613.625 558.158, 613.063 558.385, 613.750 558.662 M 208.813 559.683 C 209.534 559.972, 210.397 559.936, 210.729 559.604 C 211.061 559.272, 210.471 559.036, 209.417 559.079 C 208.252 559.127, 208.015 559.364, 208.813 559.683 M 421.813 559.683 C 422.534 559.972, 423.397 559.936, 423.729 559.604 C 424.061 559.272, 423.471 559.036, 422.417 559.079 C 421.252 559.127, 421.015 559.364, 421.813 559.683 M 431 561.378 C 431 561.585, 431.788 562.373, 432.750 563.128 C 434.336 564.371, 434.371 564.336, 433.128 562.750 C 431.821 561.084, 431 560.555, 431 561.378 M 218.564 563.293 C 218.940 564.279, 219.499 564.834, 219.807 564.526 C 220.115 564.219, 219.808 563.412, 219.124 562.733 C 218.136 561.753, 218.022 561.868, 218.564 563.293 M 543.500 565 C 544.495 566.100, 545.535 567, 545.810 567 C 546.085 567, 545.495 566.100, 544.500 565 C 543.505 563.900, 542.465 563, 542.190 563 C 541.915 563, 542.505 563.900, 543.500 565 M 631.272 569 C 631.272 571.475, 631.467 572.487, 631.706 571.250 C 631.944 570.013, 631.944 567.987, 631.706 566.750 C 631.467 565.513, 631.272 566.525, 631.272 569 M 375.272 572 C 375.272 574.475, 375.467 575.487, 375.706 574.250 C 375.944 573.013, 375.944 570.987, 375.706 569.750 C 375.467 568.513, 375.272 569.525, 375.272 572 M 547.158 574 C 547.158 575.375, 547.385 575.938, 547.662 575.250 C 547.940 574.563, 547.940 573.438, 547.662 572.750 C 547.385 572.063, 547.158 572.625, 547.158 574 M 564.079 573.583 C 564.127 574.748, 564.364 574.985, 564.683 574.188 C 564.972 573.466, 564.936 572.603, 564.604 572.271 C 564.272 571.939, 564.036 572.529, 564.079 573.583 M 436.467 628 C 436.467 658.525, 436.594 671.012, 436.749 655.750 C 436.905 640.487, 436.905 615.512, 436.749 600.250 C 436.594 584.987, 436.467 597.475, 436.467 628 M 219.336 584 C 219.336 588.125, 219.513 589.813, 219.728 587.750 C 219.944 585.688, 219.944 582.313, 219.728 580.250 C 219.513 578.188, 219.336 579.875, 219.336 584 M 787.310 583.500 C 787.315 586.800, 787.502 588.029, 787.725 586.232 C 787.947 584.435, 787.943 581.735, 787.715 580.232 C 787.486 578.729, 787.304 580.200, 787.310 583.500 M 563.464 631.500 C 563.464 659.550, 563.592 671.169, 563.749 657.320 C 563.906 643.471, 563.906 620.521, 563.749 606.320 C 563.593 592.119, 563.465 603.450, 563.464 631.500 M 493 582.378 C 493 582.585, 493.788 583.373, 494.750 584.128 C 496.336 585.371, 496.371 585.336, 495.128 583.750 C 493.821 582.084, 493 581.555, 493 582.378 M 376.300 591 C 376.300 594.025, 376.487 595.263, 376.716 593.750 C 376.945 592.237, 376.945 589.763, 376.716 588.250 C 376.487 586.737, 376.300 587.975, 376.300 591 M 455 587.378 C 455 587.585, 455.788 588.373, 456.750 589.128 C 458.336 590.371, 458.371 590.336, 457.128 588.750 C 455.821 587.084, 455 586.555, 455 587.378 M 497 587.378 C 497 587.585, 497.788 588.373, 498.750 589.128 C 500.336 590.371, 500.371 590.336, 499.128 588.750 C 497.821 587.084, 497 586.555, 497 587.378 M 630.328 594.500 C 630.333 598.350, 630.513 599.802, 630.730 597.728 C 630.946 595.653, 630.943 592.503, 630.722 590.728 C 630.501 588.952, 630.324 590.650, 630.328 594.500 M 647 594.441 C 647 596.398, 647.174 598, 647.387 598 C 648.208 598, 648.621 591.884, 647.833 591.397 C 647.375 591.114, 647 592.484, 647 594.441 M 501 592.378 C 501 592.585, 501.788 593.373, 502.750 594.128 C 504.336 595.371, 504.371 595.336, 503.128 593.750 C 501.821 592.084, 501 591.555, 501 592.378 M 505 597.378 C 505 597.585, 505.788 598.373, 506.750 599.128 C 508.336 600.371, 508.371 600.336, 507.128 598.750 C 505.821 597.084, 505 596.555, 505 597.378 M 345.158 600 C 345.158 601.375, 345.385 601.938, 345.662 601.250 C 345.940 600.563, 345.940 599.438, 345.662 598.750 C 345.385 598.063, 345.158 598.625, 345.158 600 M 788.300 604 C 788.300 607.025, 788.487 608.263, 788.716 606.750 C 788.945 605.237, 788.945 602.763, 788.716 601.250 C 788.487 599.737, 788.300 600.975, 788.300 604 M 235.310 606.500 C 235.315 609.800, 235.502 611.029, 235.725 609.232 C 235.947 607.435, 235.943 604.735, 235.715 603.232 C 235.486 601.729, 235.304 603.200, 235.310 606.500 M 509 602.378 C 509 602.585, 509.788 603.373, 510.750 604.128 C 512.336 605.371, 512.371 605.336, 511.128 603.750 C 509.821 602.084, 509 601.555, 509 602.378 M 757.232 607 C 757.232 608.925, 757.438 609.712, 757.689 608.750 C 757.941 607.788, 757.941 606.212, 757.689 605.250 C 757.438 604.288, 757.232 605.075, 757.232 607 M 218.328 611.500 C 218.333 615.350, 218.513 616.802, 218.730 614.728 C 218.946 612.653, 218.943 609.503, 218.722 607.728 C 218.501 605.952, 218.324 607.650, 218.328 611.500 M 377.300 612 C 377.300 615.025, 377.487 616.263, 377.716 614.750 C 377.945 613.237, 377.945 610.763, 377.716 609.250 C 377.487 607.737, 377.300 608.975, 377.300 612 M 346.310 613.500 C 346.315 616.800, 346.502 618.029, 346.725 616.232 C 346.947 614.435, 346.943 611.735, 346.715 610.232 C 346.486 608.729, 346.304 610.200, 346.310 613.500 M 472 608.378 C 472 608.585, 472.788 609.373, 473.750 610.128 C 475.336 611.371, 475.371 611.336, 474.128 609.750 C 472.821 608.084, 472 607.555, 472 608.378 M 646.310 614.500 C 646.315 617.800, 646.502 619.029, 646.725 617.232 C 646.947 615.435, 646.943 612.735, 646.715 611.232 C 646.486 609.729, 646.304 611.200, 646.310 614.500 M 476 613.378 C 476 613.585, 476.788 614.373, 477.750 615.128 C 479.336 616.371, 479.371 616.336, 478.128 614.750 C 476.821 613.084, 476 612.555, 476 613.378 M 518 613.378 C 518 613.585, 518.788 614.373, 519.750 615.128 C 521.336 616.371, 521.371 616.336, 520.128 614.750 C 518.821 613.084, 518 612.555, 518 613.378 M 629.328 621.500 C 629.333 625.350, 629.513 626.802, 629.730 624.728 C 629.946 622.653, 629.943 619.503, 629.722 617.728 C 629.501 615.952, 629.324 617.650, 629.328 621.500 M 480 618.378 C 480 618.585, 480.788 619.373, 481.750 620.128 C 483.336 621.371, 483.371 621.336, 482.128 619.750 C 480.821 618.084, 480 617.555, 480 618.378 M 522 618.378 C 522 618.585, 522.788 619.373, 523.750 620.128 C 525.336 621.371, 525.371 621.336, 524.128 619.750 C 522.821 618.084, 522 617.555, 522 618.378 M 789.300 625 C 789.300 628.025, 789.487 629.263, 789.716 627.750 C 789.945 626.237, 789.945 623.763, 789.716 622.250 C 789.487 620.737, 789.300 621.975, 789.300 625 M 484 623.378 C 484 623.585, 484.788 624.373, 485.750 625.128 C 487.336 626.371, 487.371 626.336, 486.128 624.750 C 484.821 623.084, 484 622.555, 484 623.378 M 526 623.378 C 526 623.585, 526.788 624.373, 527.750 625.128 C 529.336 626.371, 529.371 626.336, 528.128 624.750 C 526.821 623.084, 526 622.555, 526 623.378 M 758.349 631 C 758.349 635.675, 758.522 637.587, 758.732 635.250 C 758.943 632.913, 758.943 629.087, 758.732 626.750 C 758.522 624.413, 758.349 626.325, 758.349 631 M 234.310 629.500 C 234.315 632.800, 234.502 634.029, 234.725 632.232 C 234.947 630.435, 234.943 627.735, 234.715 626.232 C 234.486 624.729, 234.304 626.200, 234.310 629.500 M 378.300 633 C 378.300 636.025, 378.487 637.263, 378.716 635.750 C 378.945 634.237, 378.945 631.763, 378.716 630.250 C 378.487 628.737, 378.300 629.975, 378.300 633 M 488 628.378 C 488 628.585, 488.788 629.373, 489.750 630.128 C 491.336 631.371, 491.371 631.336, 490.128 629.750 C 488.821 628.084, 488 627.555, 488 628.378 M 217.328 638.500 C 217.333 642.350, 217.513 643.802, 217.730 641.728 C 217.946 639.653, 217.943 636.503, 217.722 634.728 C 217.501 632.952, 217.324 634.650, 217.328 638.500 M 645.310 637.500 C 645.315 640.800, 645.502 642.029, 645.725 640.232 C 645.947 638.435, 645.943 635.735, 645.715 634.232 C 645.486 632.729, 645.304 634.200, 645.310 637.500 M 492 633.378 C 492 633.585, 492.788 634.373, 493.750 635.128 C 495.336 636.371, 495.371 636.336, 494.128 634.750 C 492.821 633.084, 492 632.555, 492 633.378 M 347.349 643 C 347.349 647.675, 347.522 649.587, 347.732 647.250 C 347.943 644.913, 347.943 641.087, 347.732 638.750 C 347.522 636.413, 347.349 638.325, 347.349 643 M 538 638.378 C 538 638.585, 538.788 639.373, 539.750 640.128 C 541.336 641.371, 541.371 641.336, 540.128 639.750 C 538.821 638.084, 538 637.555, 538 638.378 M 790.300 646 C 790.300 649.025, 790.487 650.263, 790.716 648.750 C 790.945 647.237, 790.945 644.763, 790.716 643.250 C 790.487 641.737, 790.300 642.975, 790.300 646 M 628.320 648 C 628.320 651.575, 628.502 653.038, 628.723 651.250 C 628.945 649.462, 628.945 646.538, 628.723 644.750 C 628.502 642.962, 628.320 644.425, 628.320 648 M 233.310 651.500 C 233.315 654.800, 233.502 656.029, 233.725 654.232 C 233.947 652.435, 233.943 649.735, 233.715 648.232 C 233.486 646.729, 233.304 648.200, 233.310 651.500 M 545 647.409 C 545 647.599, 545.675 648.315, 546.500 649 C 547.365 649.718, 548 649.815, 548 649.229 C 548 648.671, 547.325 647.955, 546.500 647.638 C 545.675 647.322, 545 647.219, 545 647.409 M 379.300 654 C 379.300 657.025, 379.487 658.263, 379.716 656.750 C 379.945 655.237, 379.945 652.763, 379.716 651.250 C 379.487 649.737, 379.300 650.975, 379.300 654 M 712.564 653.707 C 712.022 655.132, 712.136 655.247, 713.124 654.267 C 713.808 653.588, 714.115 652.781, 713.807 652.474 C 713.499 652.166, 712.940 652.721, 712.564 653.707 M 644.310 660.500 C 644.315 663.800, 644.502 665.029, 644.725 663.232 C 644.947 661.435, 644.943 658.735, 644.715 657.232 C 644.486 655.729, 644.304 657.200, 644.310 660.500 M 759.349 663 C 759.349 667.675, 759.522 669.587, 759.732 667.250 C 759.943 664.913, 759.943 661.087, 759.732 658.750 C 759.522 656.413, 759.349 658.325, 759.349 663 M 216.310 662.500 C 216.315 665.800, 216.502 667.029, 216.725 665.232 C 216.947 663.435, 216.943 660.735, 216.715 659.232 C 216.486 657.729, 216.304 659.200, 216.310 662.500 M 513 659.378 C 513 659.585, 513.788 660.373, 514.750 661.128 C 516.336 662.371, 516.371 662.336, 515.128 660.750 C 513.821 659.084, 513 658.555, 513 659.378 M 791.300 667 C 791.300 670.025, 791.487 671.263, 791.716 669.750 C 791.945 668.237, 791.945 665.763, 791.716 664.250 C 791.487 662.737, 791.300 663.975, 791.300 667 M 517 664.378 C 517 664.585, 517.788 665.373, 518.750 666.128 C 520.336 667.371, 520.371 667.336, 519.128 665.750 C 517.821 664.084, 517 663.555, 517 664.378 M 627.300 670 C 627.300 673.025, 627.487 674.263, 627.716 672.750 C 627.945 671.237, 627.945 668.763, 627.716 667.250 C 627.487 665.737, 627.300 666.975, 627.300 670 M 348.328 673.500 C 348.333 677.350, 348.513 678.802, 348.730 676.728 C 348.946 674.653, 348.943 671.503, 348.722 669.728 C 348.501 667.952, 348.324 669.650, 348.328 673.500 M 232.310 674.500 C 232.315 677.800, 232.502 679.029, 232.725 677.232 C 232.947 675.435, 232.943 672.735, 232.715 671.232 C 232.486 669.729, 232.304 671.200, 232.310 674.500 M 521 669.378 C 521 669.585, 521.788 670.373, 522.750 671.128 C 524.336 672.371, 524.371 672.336, 523.128 670.750 C 521.821 669.084, 521 668.555, 521 669.378 M 380.272 674 C 380.272 676.475, 380.467 677.487, 380.706 676.250 C 380.944 675.013, 380.944 672.987, 380.706 671.750 C 380.467 670.513, 380.272 671.525, 380.272 674 M 525 674.378 C 525 674.585, 525.788 675.373, 526.750 676.128 C 528.336 677.371, 528.371 677.336, 527.128 675.750 C 525.821 674.084, 525 673.555, 525 674.378 M 452.300 682 C 452.300 685.025, 452.487 686.263, 452.716 684.750 C 452.945 683.237, 452.945 680.763, 452.716 679.250 C 452.487 677.737, 452.300 678.975, 452.300 682 M 643.343 684.500 C 643.346 688.900, 643.522 690.576, 643.733 688.224 C 643.945 685.872, 643.942 682.272, 643.727 680.224 C 643.512 678.176, 643.339 680.100, 643.343 684.500 M 215.232 681 C 215.232 682.925, 215.438 683.712, 215.689 682.750 C 215.941 681.788, 215.941 680.212, 215.689 679.250 C 215.438 678.288, 215.232 679.075, 215.232 681 M 529 679.378 C 529 679.585, 529.788 680.373, 530.750 681.128 C 532.336 682.371, 532.371 682.336, 531.128 680.750 C 529.821 679.084, 529 678.555, 529 679.378 M 792.158 682 C 792.158 683.375, 792.385 683.938, 792.662 683.250 C 792.940 682.563, 792.940 681.438, 792.662 680.750 C 792.385 680.063, 792.158 680.625, 792.158 682 M 381.158 685 C 381.158 686.375, 381.385 686.938, 381.662 686.250 C 381.940 685.563, 381.940 684.438, 381.662 683.750 C 381.385 683.063, 381.158 683.625, 381.158 685 M 626.232 686 C 626.232 687.925, 626.438 688.712, 626.689 687.750 C 626.941 686.788, 626.941 685.212, 626.689 684.250 C 626.438 683.288, 626.232 684.075, 626.232 686 M 533 684.378 C 533 684.585, 533.788 685.373, 534.750 686.128 C 536.336 687.371, 536.371 687.336, 535.128 685.750 C 533.821 684.084, 533 683.555, 533 684.378 M 760.232 687 C 760.232 688.925, 760.438 689.712, 760.689 688.750 C 760.941 687.788, 760.941 686.212, 760.689 685.250 C 760.438 684.288, 760.232 685.075, 760.232 687 M 793.079 688.583 C 793.127 689.748, 793.364 689.985, 793.683 689.188 C 793.972 688.466, 793.936 687.603, 793.604 687.271 C 793.272 686.939, 793.036 687.529, 793.079 688.583 M 537 689.378 C 537 689.585, 537.788 690.373, 538.750 691.128 C 540.336 692.371, 540.371 692.336, 539.128 690.750 C 537.821 689.084, 537 688.555, 537 689.378 M 623.405 694.250 L 621.500 696.500 623.750 694.595 C 625.864 692.805, 626.455 692, 625.655 692 C 625.465 692, 624.453 693.013, 623.405 694.250 M 756.872 696.750 C 755.629 698.336, 755.664 698.371, 757.250 697.128 C 758.916 695.821, 759.445 695, 758.622 695 C 758.415 695, 757.627 695.788, 756.872 696.750 M 564.310 705.500 C 564.315 708.800, 564.502 710.029, 564.725 708.232 C 564.947 706.435, 564.943 703.735, 564.715 702.232 C 564.486 700.729, 564.304 702.200, 564.310 705.500 M 418.813 701.683 C 419.534 701.972, 420.397 701.936, 420.729 701.604 C 421.061 701.272, 420.471 701.036, 419.417 701.079 C 418.252 701.127, 418.015 701.364, 418.813 701.683 M 471.813 701.683 C 472.534 701.972, 473.397 701.936, 473.729 701.604 C 474.061 701.272, 473.471 701.036, 472.417 701.079 C 471.252 701.127, 471.015 701.364, 471.813 701.683 M 662.813 701.683 C 663.534 701.972, 664.397 701.936, 664.729 701.604 C 665.061 701.272, 664.471 701.036, 663.417 701.079 C 662.252 701.127, 662.015 701.364, 662.813 701.683 M 476.079 703.583 C 476.127 704.748, 476.364 704.985, 476.683 704.188 C 476.972 703.466, 476.936 702.603, 476.604 702.271 C 476.272 701.939, 476.036 702.529, 476.079 703.583 M 331.252 706.500 C 331.263 708.700, 331.468 709.482, 331.707 708.238 C 331.946 706.994, 331.937 705.194, 331.687 704.238 C 331.437 703.282, 331.241 704.300, 331.252 706.500 M 189.195 706.500 C 189.215 708.150, 189.439 708.704, 189.693 707.731 C 189.947 706.758, 189.930 705.408, 189.656 704.731 C 189.382 704.054, 189.175 704.850, 189.195 706.500 M 668.232 707 C 668.232 708.925, 668.438 709.712, 668.689 708.750 C 668.941 707.788, 668.941 706.212, 668.689 705.250 C 668.438 704.288, 668.232 705.075, 668.232 707 M 742.195 706.500 C 742.215 708.150, 742.439 708.704, 742.693 707.731 C 742.947 706.758, 742.930 705.408, 742.656 704.731 C 742.382 704.054, 742.175 704.850, 742.195 706.500 M 810.232 707 C 810.232 708.925, 810.438 709.712, 810.689 708.750 C 810.941 707.788, 810.941 706.212, 810.689 705.250 C 810.438 704.288, 810.232 705.075, 810.232 707 M 550 705.313 C 550 705.485, 551.462 706.948, 553.250 708.563 L 556.500 711.500 553.563 708.250 C 550.825 705.221, 550 704.540, 550 705.313 M 708.872 707.750 C 707.629 709.336, 707.664 709.371, 709.250 708.128 C 710.916 706.821, 711.445 706, 710.622 706 C 710.415 706, 709.627 706.788, 708.872 707.750 M 217.250 709.739 C 220.412 709.937, 225.588 709.937, 228.750 709.739 C 231.912 709.541, 229.325 709.378, 223 709.378 C 216.675 709.378, 214.088 709.541, 217.250 709.739 M 360.750 709.740 C 364.188 709.936, 369.813 709.936, 373.250 709.740 C 376.688 709.545, 373.875 709.385, 367 709.385 C 360.125 709.385, 357.313 709.545, 360.750 709.740 M 438.250 709.739 C 441.413 709.937, 446.587 709.937, 449.750 709.739 C 452.913 709.541, 450.325 709.378, 444 709.378 C 437.675 709.378, 435.087 709.541, 438.250 709.739 M 628.789 709.741 C 632.248 709.937, 637.648 709.936, 640.789 709.738 C 643.930 709.540, 641.100 709.380, 634.500 709.382 C 627.900 709.384, 625.330 709.546, 628.789 709.741 M 700.818 710.218 C 701.351 710.751, 702.623 711.011, 703.644 710.794 C 705.019 710.503, 704.767 710.251, 702.674 709.825 C 700.849 709.452, 700.192 709.592, 700.818 710.218 M 772.789 709.741 C 776.248 709.937, 781.648 709.936, 784.789 709.738 C 787.930 709.540, 785.100 709.380, 778.500 709.382 C 771.900 709.384, 769.330 709.546, 772.789 709.741 M 199.250 710.689 C 200.213 710.941, 201.787 710.941, 202.750 710.689 C 203.713 710.438, 202.925 710.232, 201 710.232 C 199.075 710.232, 198.287 710.438, 199.250 710.689 M 243.762 710.707 C 245.006 710.946, 246.806 710.937, 247.762 710.687 C 248.718 710.437, 247.700 710.241, 245.500 710.252 C 243.300 710.263, 242.518 710.468, 243.762 710.707 M 290.750 710.662 C 291.438 710.940, 292.563 710.940, 293.250 710.662 C 293.938 710.385, 293.375 710.158, 292 710.158 C 290.625 710.158, 290.063 710.385, 290.750 710.662 M 341.762 710.707 C 343.006 710.946, 344.806 710.937, 345.762 710.687 C 346.718 710.437, 345.700 710.241, 343.500 710.252 C 341.300 710.263, 340.518 710.468, 341.762 710.707 M 387.250 710.689 C 388.212 710.941, 389.788 710.941, 390.750 710.689 C 391.712 710.438, 390.925 710.232, 389 710.232 C 387.075 710.232, 386.288 710.438, 387.250 710.689 M 421.250 710.689 C 422.212 710.941, 423.788 710.941, 424.750 710.689 C 425.712 710.438, 424.925 710.232, 423 710.232 C 421.075 710.232, 420.288 710.438, 421.250 710.689 M 463.250 710.689 C 464.212 710.941, 465.788 710.941, 466.750 710.689 C 467.712 710.438, 466.925 710.232, 465 710.232 C 463.075 710.232, 462.288 710.438, 463.250 710.689 M 610.762 710.707 C 612.006 710.946, 613.806 710.937, 614.762 710.687 C 615.718 710.437, 614.700 710.241, 612.500 710.252 C 610.300 710.263, 609.518 710.468, 610.762 710.707 M 654.750 710.706 C 655.987 710.944, 658.013 710.944, 659.250 710.706 C 660.487 710.467, 659.475 710.272, 657 710.272 C 654.525 710.272, 653.513 710.467, 654.750 710.706 M 752.762 710.707 C 754.006 710.946, 755.806 710.937, 756.762 710.687 C 757.718 710.437, 756.700 710.241, 754.500 710.252 C 752.300 710.263, 751.518 710.468, 752.762 710.707 M 799.250 710.689 C 800.212 710.941, 801.788 710.941, 802.750 710.689 C 803.712 710.438, 802.925 710.232, 801 710.232 C 799.075 710.232, 798.288 710.438, 799.250 710.689 M 558.269 711.693 C 559.242 711.947, 560.592 711.930, 561.269 711.656 C 561.946 711.382, 561.150 711.175, 559.500 711.195 C 557.850 711.215, 557.296 711.439, 558.269 711.693" stroke="none" fill="#00050a" fill-rule="evenodd" style="--darkreader-inline-fill: #000408; --darkreader-inline-stroke: none;" data-darkreader-inline-stroke="" data-darkreader-inline-fill=""></path></g></svg>